<svg width="42" height="24" viewBox="0 0 42 24" fill="none" xmlns="http://www.w3.org/2000/svg">
<g opacity="0.75">
<rect width="24" height="24" rx="8" fill="white" fill-opacity="0.2"/>
<path d="M13.1318 6.24121L12.7432 7.79883C13.0026 7.85804 13.2636 7.9181 13.5176 7.98145L13.9033 6.43359L14.8721 6.6748L14.4756 8.26465C15.621 8.65923 16.4776 9.23841 16.4355 10.2764L16.415 10.4893C16.288 11.3482 15.8118 11.7648 15.1797 11.9111C16.0476 12.3634 16.4891 13.0564 16.0684 14.2578C15.5467 15.7499 14.3053 15.8757 12.6553 15.5635L12.2549 17.168L11.2871 16.9277L11.6826 15.3438C11.4319 15.2815 11.1758 15.2152 10.9121 15.1436L10.5146 16.7344L9.54883 16.4932L9.94922 14.8857C9.72357 14.8279 9.49395 14.7657 9.25977 14.707L8 14.3936L8.48047 13.2852C8.48047 13.2852 9.19324 13.475 9.18359 13.4609C9.45741 13.5287 9.57895 13.3505 9.62695 13.2314L10.2598 10.6943L10.3623 10.7197C10.3238 10.7043 10.2887 10.6944 10.2617 10.6875L10.7129 8.87695C10.725 8.67136 10.6536 8.41131 10.2617 8.31348C10.2767 8.30341 9.57753 8.14377 9.55957 8.13965L9.81641 7.10547L11.1514 7.43848L11.1504 7.44336C11.3508 7.49319 11.5572 7.54096 11.7676 7.58887L12.1641 6L13.1318 6.24121ZM11.2266 13.9795C11.8623 14.1376 13.7806 14.7515 14.1719 13.6973L14.2051 13.5898C14.5165 12.3369 12.4137 12.0133 11.7578 11.8496L11.2266 13.9795ZM12 10.874C12.5465 11.0102 14.2298 11.5651 14.5029 10.4727C14.7873 9.33252 13.0279 9.07853 12.4814 8.94238L12 10.874Z" fill="white"/>
<rect x="18" width="24" height="24" rx="8" fill="white" fill-opacity="0.2"/>
<path fill-rule="evenodd" clip-rule="evenodd" d="M30 5L30.0131 9.04155L33.5 11.3402L30 5ZM30.0156 9.75586L33.3778 11.9694L30.0173 14.2018L30.0156 9.75586ZM30.0156 14.935L33.5025 12.6245C32.421 14.9397 30.0156 19.0002 30.0156 19.0002V14.935Z" fill="white"/>
<path fill-rule="evenodd" clip-rule="evenodd" d="M26.5 11.326L30.0144 9.04155L33.5 11.3402L29.999 5L26.5 11.326ZM26.6328 11.9859L30.0169 9.75586L33.357 11.9694L30.0189 14.2018L26.6328 11.9859ZM26.5 12.6243C27.7334 13.4331 29.0204 14.2797 30.0144 14.9348L33.5 12.6243C32.2379 14.9395 31.1865 16.8669 30.0144 19L29.2957 17.6974C28.3301 15.9471 27.3343 14.1422 26.5 12.6243Z" fill="white"/>
</g>
</svg>
