<svg width="528" height="253" viewBox="0 0 528 253" fill="none" xmlns="http://www.w3.org/2000/svg">
<rect width="523" height="253" fill="url(#paint0_radial_2068_573)" fill-opacity="0.25"/>
<path d="M47.25 47.75H118.5V28H119.5V47.75H190.75V28H191.25V47.75H262.75V28H263.25V47.75H334.75V28H335.25V47.75H406.75V28H407.25V47.75H478.75V28H479.25V47.75H528V48.25H479.25V76.75H528V77.25H479.25V105.75H528V106.25H479.25V134.75H528V135.25H479.25V163.75H528V164.25H479.25V192.75H528V193.25H479.25V221.75H528V222.25H479.25V236H478.75V222.25H407.25V236H406.75V222.25H335.25V236H334.75V222.25H263.25V236H262.75V222.25H191.25V236H190.75V222.25H119.5V236H118.5V222.25H47.25V236H46.75V222.25H0V221.75H46.75V193.25H0V192.75H46.75V164.25H0V163.75H46.75V135.25H0V134.75H46.75V106.25H0V105.75H46.75V77.25H0V76.75H46.75V48.25H0V47.75H46.75V28H47.25V47.75ZM47.25 221.75H118.5V193.25H47.25V221.75ZM119.5 221.75H190.75V193.25H119.5V221.75ZM263.25 221.75H334.75V193.25H263.25V221.75ZM335.25 221.75H406.75V193.25H335.25V221.75ZM407.25 221.75H478.75V193.25H407.25V221.75ZM191.25 221.75H262.75V193.25H191.25V221.75ZM47.25 192.75H118.5V164.25H47.25V192.75ZM119.5 192.75H190.75V164.25H119.5V192.75ZM263.25 192.75H334.75V164.25H263.25V192.75ZM335.25 192.75H406.75V164.25H335.25V192.75ZM407.25 192.75H478.75V164.25H407.25V192.75ZM191.25 192.75H262.75V164.25H191.25V192.75ZM47.25 163.75H118.5V135.25H47.25V163.75ZM119.5 163.75H190.75V135.25H119.5V163.75ZM263.25 163.75H334.75V135.25H263.25V163.75ZM335.25 163.75H406.75V135.25H335.25V163.75ZM407.25 163.75H478.75V135.25H407.25V163.75ZM191.25 163.75H262.75V135.25H191.25V163.75ZM47.25 134.75H118.5V106.25H47.25V134.75ZM119.5 134.75H190.75V106.25H119.5V134.75ZM263.25 134.75H334.75V106.25H263.25V134.75ZM335.25 134.75H406.75V106.25H335.25V134.75ZM407.25 134.75H478.75V106.25H407.25V134.75ZM191.25 134.75H262.75V106.25H191.25V134.75ZM47.25 105.75H118.5V77.25H47.25V105.75ZM119.5 105.75H190.75V77.25H119.5V105.75ZM263.25 105.75H334.75V77.25H263.25V105.75ZM335.25 105.75H406.75V77.25H335.25V105.75ZM407.25 105.75H478.75V77.25H407.25V105.75ZM191.25 105.75H262.75V77.25H191.25V105.75ZM47.25 76.75H118.5V48.25H47.25V76.75ZM119.5 76.75H190.75V48.25H119.5V76.75ZM263.25 76.75H334.75V48.25H263.25V76.75ZM335.25 76.75H406.75V48.25H335.25V76.75ZM407.25 76.75H478.75V48.25H407.25V76.75ZM191.25 76.75H262.75V48.25H191.25V76.75Z" fill="url(#paint1_radial_2068_573)" fill-opacity="0.5"/>
<defs>
<radialGradient id="paint0_radial_2068_573" cx="0" cy="0" r="1" gradientUnits="userSpaceOnUse" gradientTransform="translate(261.5 126.5) rotate(-90) scale(126.5 261.5)">
<stop stop-color="#2E64E7"/>
<stop offset="1" stop-color="#2E64E7" stop-opacity="0"/>
</radialGradient>
<radialGradient id="paint1_radial_2068_573" cx="0" cy="0" r="1" gradientUnits="userSpaceOnUse" gradientTransform="translate(264 132) rotate(90) scale(104 264)">
<stop stop-color="#2E64E7"/>
<stop offset="1" stop-color="#2E64E7" stop-opacity="0"/>
</radialGradient>
</defs>
</svg>
