<svg width="146" height="134" viewBox="0 0 146 134" fill="none" xmlns="http://www.w3.org/2000/svg">
<path d="M72.9658 0C112.765 6.10668e-05 145.029 32.4668 145.029 72.5166C145.029 97.1308 132.843 118.881 114.21 131.99C102.525 140.211 99.1825 120.56 72.9658 120.56C46.7491 120.56 43.4065 140.211 31.7217 131.99C13.0887 118.881 0.902344 97.1308 0.902344 72.5166C0.902445 32.4668 33.1663 0 72.9658 0ZM73.4189 33.5391C52.8934 33.5391 36.254 50.5942 36.2539 71.6328C36.2539 92.6715 52.8934 109.727 73.4189 109.727C93.9445 109.726 110.584 92.6715 110.584 71.6328C110.584 50.5942 93.9444 33.5392 73.4189 33.5391Z" fill="url(#paint0_linear_182_1316)"/>
<defs>
<linearGradient id="paint0_linear_182_1316" x1="0.902344" y1="0" x2="151.983" y2="63.5075" gradientUnits="userSpaceOnUse">
<stop stop-color="#2E64E7"/>
<stop offset="1" stop-color="#2E64E7" stop-opacity="0"/>
</linearGradient>
</defs>
</svg>
