<svg width="249" height="124" viewBox="0 0 249 124" fill="none" xmlns="http://www.w3.org/2000/svg">
<path d="M43.9439 12.2448C43.9439 13.2263 44.6598 14.0576 45.6221 14.2509C57.3553 16.6079 65.7928 23.4792 68.871 34.3017C69.1538 35.296 68.5647 36.3141 67.58 36.6285L56.4309 40.1887C55.3475 40.5347 54.2045 39.903 53.8043 38.8385C52.4114 35.1328 50.0735 32.1316 46.5152 30.2021C45.3065 29.5467 43.9439 30.5092 43.9439 31.8841V52.9183C43.9439 53.8211 44.5497 54.61 45.4185 54.8557C58.7931 58.6376 71.8188 64.8132 71.8189 81.5723C71.8189 96.2955 61.4486 106.009 45.6585 108.8C44.6784 108.973 43.9439 109.812 43.9439 110.807V121.323C43.9439 122.427 43.0492 123.321 41.9455 123.321H31.8172C30.7136 123.321 29.8189 122.427 29.8189 121.323V110.982C29.8189 109.965 29.0535 109.115 28.0483 108.964C12.2877 106.598 2.79331 97.2108 0.0522927 85.6761C-0.180802 84.6952 0.418198 83.7247 1.38184 83.4282L13.8509 79.5916C14.9749 79.2457 16.1451 79.9436 16.4719 81.0733C18.1624 86.9182 21.5495 91.1695 27.4057 93.2477C28.6169 93.6775 29.8189 92.7203 29.8189 91.4352V68.4863C29.8189 67.5792 29.2075 66.7875 28.3328 66.5474C15.579 63.0464 3.06995 57.6544 3.06983 40.4482C3.06983 25.4259 13.8154 16.4115 28.0859 13.9613C29.0738 13.7916 29.8189 12.9491 29.8189 11.9467V2.82161C29.8189 1.71794 30.7136 0.823242 31.8172 0.823242H41.9455C43.0492 0.823242 43.9439 1.71794 43.9439 2.82161V12.2448ZM111.517 13.3232C129.142 13.3233 140.766 23.6986 140.766 38.6982C140.766 45.7409 138.23 51.7501 131.775 56.8079C130.482 57.8202 130.666 59.9756 132.082 60.8061C139.455 65.1311 143.141 72.518 143.141 81.3223C143.141 98.9469 128.392 109.572 110.392 109.572C95.0202 109.572 80.8199 102.071 77.3253 84.4583C77.1273 83.46 77.7604 82.4976 78.7433 82.2335L91.5258 78.7994C92.7058 78.4824 93.8841 79.2943 94.1286 80.4914C95.858 88.957 101.539 93.8223 110.392 93.8223C118.892 93.8222 125.891 89.197 125.891 80.5723C125.891 72.5725 119.892 67.9474 112.517 67.9473H105.515C104.412 67.9473 103.517 67.0526 103.517 65.9489V54.4466C103.517 53.3429 104.412 52.4482 105.515 52.4482H110.642C117.517 52.4481 123.767 48.4478 123.767 40.5732C123.767 33.3234 118.267 28.5734 110.767 28.5732C103.806 28.5732 98.1984 32.3244 96.0387 38.9703C95.692 40.0373 94.6172 40.7406 93.524 40.4883L81.1704 37.6375C80.1123 37.3933 79.4366 36.3445 79.7213 35.2966C83.3648 21.884 95.2726 13.3232 111.517 13.3232ZM182.208 13.3232C203.332 13.3234 217.206 30.9481 217.207 61.1973C217.207 91.8216 203.332 109.572 182.208 109.572C160.958 109.572 146.958 91.8218 146.958 61.1973C146.958 30.948 160.958 13.3232 182.208 13.3232ZM182.208 28.6982C169.333 28.6982 164.208 41.8228 164.208 61.1973C164.208 81.0719 169.208 94.1973 182.208 94.1973C194.832 94.1971 200.082 81.0718 200.082 61.1973C200.081 41.8229 194.832 28.6984 182.208 28.6982ZM43.9439 91.6258C43.9439 92.8897 45.1074 93.8446 46.3135 93.4663C51.7264 91.7684 55.1939 88.2779 55.1939 82.5723C55.1938 76.9841 51.6828 73.9827 46.5673 71.8209C45.302 71.2861 43.9439 72.255 43.9439 73.6287V91.6258ZM29.8189 30.7363C29.8189 29.4833 28.6717 28.5289 27.4754 28.9017C21.8907 30.6418 19.4448 34.3466 19.4448 39.3232C19.4449 44.532 22.5183 47.5715 27.205 49.6712C28.4591 50.233 29.8189 49.264 29.8189 47.8897V30.7363Z" fill="url(#paint0_linear_2028_564)"/>
<path d="M215.314 22V12.982H217.636L220.462 16.87L223.234 12.982H225.556V22H223.378V16.06L220.696 19.804H220.192L217.492 16.078V22H215.314ZM227.209 20.056C227.299 20.074 227.371 20.092 227.497 20.092C228.361 20.092 228.685 19.696 228.811 16.06L228.937 12.982H236.047V22H233.761V14.98H231.133L231.061 16.582C230.881 20.776 230.125 22.18 227.893 22.18C227.515 22.18 227.245 22.126 226.957 22.036L227.209 20.056ZM238.675 22V12.982H240.961V16.33H244.615V12.982H246.901V22H244.615V18.364H240.961V22H238.675Z" fill="url(#paint1_linear_2028_564)"/>
<defs>
<linearGradient id="paint0_linear_2028_564" x1="49.498" y1="22.5" x2="229.802" y2="218.66" gradientUnits="userSpaceOnUse">
<stop stop-color="#2E64E7"/>
<stop offset="1" stop-color="#2E64E7" stop-opacity="0"/>
</linearGradient>
<linearGradient id="paint1_linear_2028_564" x1="214" y1="6" x2="262.428" y2="45.1545" gradientUnits="userSpaceOnUse">
<stop stop-color="#2E64E7"/>
<stop offset="1" stop-color="#2E64E7" stop-opacity="0"/>
</linearGradient>
</defs>
</svg>
